<?xml version="1.0" encoding="utf-8"?>
<!-- Generator: Adobe Illustrator 16.0.3, SVG Export Plug-In . SVG Version: 6.00 Build 0)  -->
<svg version="1.2" baseProfile="tiny" id="Capa_1" xmlns="http://www.w3.org/2000/svg" xmlns:xlink="http://www.w3.org/1999/xlink"
	 x="0px" y="0px" width="600px" height="600px" viewBox="0 0 600 600" xml:space="preserve">
<g>
	<linearGradient id="SVGID_1_" gradientUnits="userSpaceOnUse" x1="14.6079" y1="330.0879" x2="331.4004" y2="330.0879">
		<stop  offset="0.0153" style="stop-color:#9F9F9F"/>
		<stop  offset="0.1827" style="stop-color:#979797"/>
		<stop  offset="0.6268" style="stop-color:#898989"/>
		<stop  offset="1" style="stop-color:#848484"/>
	</linearGradient>
	<path fill="url(#SVGID_1_)" d="M312.163,546.425H33.845c-10.624,0-19.237-8.613-19.237-19.237v-394.2
		c0-10.625,8.613-19.237,19.237-19.237h278.318c10.626,0,19.237,8.612,19.237,19.237v394.2
		C331.4,537.812,322.789,546.425,312.163,546.425z"/>
	<linearGradient id="SVGID_2_" gradientUnits="userSpaceOnUse" x1="330.209" y1="335.8857" x2="173.3789" y2="335.8857">
		<stop  offset="0.0153" style="stop-color:#F3F3F3"/>
		<stop  offset="0.0618" style="stop-color:#F4F4F4"/>
		<stop  offset="1" style="stop-color:#FFFFFF"/>
	</linearGradient>
	<path fill="url(#SVGID_2_)" d="M305.594,523.888H40.417c-2.796,0-5.063-2.267-5.063-5.063v-365.88c0-2.795,2.266-5.062,5.063-5.062
		h265.177c2.794,0,5.062,2.266,5.062,5.062v365.88C310.655,521.621,308.388,523.888,305.594,523.888z"/>
	<g>
		<rect x="150.821" y="216.481" fill="#E6E6E6" width="133.08" height="6.627"/>
		<rect x="150.821" y="236.848" fill="#E6E6E6" width="133.08" height="6.625"/>
		<rect x="150.821" y="257.212" fill="#E6E6E6" width="133.08" height="6.627"/>
	</g>
	<g>
		<rect x="150.821" y="316.197" fill="#E4E4E4" width="133.08" height="6.627"/>
		<rect x="150.821" y="336.563" fill="#E4E4E4" width="133.08" height="6.627"/>
		<rect x="150.821" y="356.929" fill="#E4E4E4" width="133.08" height="6.626"/>
	</g>
	<image width="555" height="198" xlink:href="6F653315.png"  transform="matrix(0.24 0 0 0.24 150.6821 413.5527)">
	</image>
	<path fill="#E4E4E4" d="M106.188,269.127H62.097c-1.992,0-3.607-1.615-3.607-3.608v-44.091c0-1.992,1.615-3.606,3.607-3.606h44.091
		c1.992,0,3.608,1.614,3.608,3.606v44.091C109.796,267.512,108.181,269.127,106.188,269.127z"/>
	<path fill="#E4E4E4" d="M106.188,365.53H62.097c-1.992,0-3.607-1.616-3.607-3.608v-44.091c0-1.993,1.615-3.608,3.607-3.608h44.091
		c1.992,0,3.608,1.615,3.608,3.608v44.091C109.796,363.914,108.181,365.53,106.188,365.53z"/>
	<path fill="#E4E4E4" d="M108.811,459.214H64.72c-1.992,0-3.607-1.614-3.607-3.607v-44.091c0-1.993,1.615-3.607,3.607-3.607h44.091
		c1.993,0,3.608,1.614,3.608,3.607v44.091C112.419,457.6,110.804,459.214,108.811,459.214z"/>
	<polygon fill="#8D8D8D" points="126.237,201.479 79.773,235.646 67.343,223.027 57.75,229.444 79.369,246.477 131.327,202.862 	"/>
	<polygon fill="#8D8D8D" points="135.238,300.492 88.774,334.658 76.345,322.04 66.751,328.457 88.37,345.489 140.328,301.874 	"/>
	<polygon fill="#8D8D8D" points="135.238,394.103 88.774,428.271 76.345,415.651 66.751,422.068 88.37,439.102 140.328,395.486 	"/>
	<linearGradient id="SVGID_3_" gradientUnits="userSpaceOnUse" x1="171.9609" y1="135.2905" x2="171.9609" y2="205.5737">
		<stop  offset="0.0153" style="stop-color:#F3F3F3"/>
		<stop  offset="0.0618" style="stop-color:#F4F4F4"/>
		<stop  offset="1" style="stop-color:#FFFFFF"/>
	</linearGradient>
	<path fill="url(#SVGID_3_)" d="M45.879,218.641c3.192,5.302,6.708,10.376,10.193,15.095c16.953,22.951,39.565,41.514,64.323,55.503
		c28.873,16.315,60.532,26.881,92.487,35.298c8.426,2.222,97.391,19.425,97.391,17.162V153.424c0-2.796-2.265-5.062-5.062-5.062
		H40.037c-2.795,0-5.062,2.266-5.062,5.063c0,13.873-3.315,29.264,0.538,42.545C37.765,203.736,41.521,211.401,45.879,218.641z"/>
	<image opacity="0.09" width="923" height="544" xlink:href="6F653317.png"  transform="matrix(0.24 0 0 0.24 88.9785 146.9214)">
	</image>
	<path fill="#E4E4E4" d="M260.44,103.005h-47.083v-6.727c0-20.53-16.644-37.173-37.174-37.173h-0.752
		c-20.53,0-37.173,16.643-37.173,37.173v6.727H91.174c-2.434,0-4.408,1.974-4.408,4.408v47.507c0,2.435,1.975,4.409,4.408,4.409
		H260.44c2.436,0,4.409-1.974,4.409-4.409v-47.507C264.849,104.979,262.876,103.005,260.44,103.005z M175.808,98.587
		c-6.863,0-12.424-5.563-12.424-12.425c0-6.861,5.562-12.424,12.424-12.424c6.862,0,12.424,5.563,12.424,12.424
		C188.232,93.024,182.67,98.587,175.808,98.587z"/>
	<g>
		<image opacity="0.23" width="743" height="32" xlink:href="6F653312.png"  transform="matrix(0.24 0 0 0.24 86.7656 145.3701)">
		</image>
		<image opacity="0.23" width="743" height="14" xlink:href="6F653313.png"  transform="matrix(0.24 0 0 0.24 86.7656 154.769)">
		</image>
	</g>
	<g>
		<g>
			<path fill="#FFFFFF" d="M231.867,140.027c-5.511,1.054-11.436-2.337-13.698-7.429c-5.251-11.824,8.207-24.514,18.744-14.668
				C243.685,124.259,241.736,138.14,231.867,140.027z"/>
			<path d="M224.579,128.033c0.162-0.678,0.606-1.323,1.384-1.838c1.184-0.785,2.92-1.011,4.249-0.553c1.83,0.63,2.752,2.68,2,4.188
				c-0.492,0.985-1.597,1.834-2.91,2.116c-1.823,0.391-3.657-0.619-4.361-1.806C224.549,129.481,224.41,128.74,224.579,128.033z"/>
		</g>
		<g>
			<path fill="#FFFFFF" d="M125.054,140.009c5.566,0.762,11.275-2.934,13.223-8.135c4.524-12.082-9.686-24.046-19.605-13.661
				C112.295,124.888,115.085,138.644,125.054,140.009z"/>
			<path d="M131.601,126.53c-0.203-0.667-0.685-1.289-1.493-1.762c-1.23-0.722-2.978-0.856-4.277-0.329
				c-1.789,0.726-2.584,2.82-1.741,4.286c0.551,0.958,1.707,1.747,3.034,1.959c1.843,0.294,3.614-0.81,4.244-2.031
				C131.719,127.974,131.813,127.227,131.601,126.53z"/>
		</g>
	</g>
	<g>
		<linearGradient id="SVGID_4_" gradientUnits="userSpaceOnUse" x1="94.7197" y1="142.8345" x2="99.3389" y2="142.8345">
			<stop  offset="0.0153" style="stop-color:#9F9F9F"/>
			<stop  offset="0.3889" style="stop-color:#999999"/>
			<stop  offset="0.8406" style="stop-color:#8B8B8B"/>
			<stop  offset="1" style="stop-color:#848484"/>
		</linearGradient>
		<path fill="url(#SVGID_4_)" d="M98.023,138.149c-1.299,2.597-2.646,5.73-3.281,8.56c-0.215,0.961,1.163,1.534,1.646,0.59
			c1.327-2.593,2.271-5.997,2.934-8.74c-0.002,0-0.004,0-0.006,0C99.514,138.559,98.409,137.377,98.023,138.149z"/>
		<linearGradient id="SVGID_5_" gradientUnits="userSpaceOnUse" x1="102.4302" y1="142.835" x2="102.4302" y2="148.5151">
			<stop  offset="0.0153" style="stop-color:#9F9F9F"/>
			<stop  offset="0.3889" style="stop-color:#999999"/>
			<stop  offset="0.8406" style="stop-color:#8B8B8B"/>
			<stop  offset="1" style="stop-color:#848484"/>
		</linearGradient>
		<path fill="url(#SVGID_5_)" d="M103.424,138.149c-1.299,2.597-2.646,5.73-3.281,8.56c-0.215,0.961,1.162,1.534,1.646,0.59
			c1.327-2.593,2.271-5.997,2.933-8.74c-0.002,0-0.004,0-0.006,0C104.915,138.559,103.81,137.377,103.424,138.149z"/>
		<linearGradient id="SVGID_6_" gradientUnits="userSpaceOnUse" x1="107.8306" y1="142.835" x2="107.8306" y2="148.5151">
			<stop  offset="0.0153" style="stop-color:#9F9F9F"/>
			<stop  offset="0.3889" style="stop-color:#999999"/>
			<stop  offset="0.8406" style="stop-color:#8B8B8B"/>
			<stop  offset="1" style="stop-color:#848484"/>
		</linearGradient>
		<path fill="url(#SVGID_6_)" d="M108.824,138.149c-1.299,2.597-2.645,5.73-3.28,8.56c-0.215,0.961,1.162,1.534,1.645,0.59
			c1.327-2.593,2.271-5.997,2.933-8.74c-0.002,0-0.003,0-0.006,0C110.315,138.559,109.21,137.377,108.824,138.149z"/>
	</g>
	<g>
		<image width="20" height="42" xlink:href="6F65331D.png"  transform="matrix(0.24 0 0 0.24 251.7397 137.8877)">
		</image>
		<image width="20" height="42" xlink:href="6F65331F.png"  transform="matrix(0.24 0 0 0.24 246.3384 137.8877)">
		</image>
		<image width="20" height="42" xlink:href="6F653310.png"  transform="matrix(0.24 0 0 0.24 240.938 137.8877)">
		</image>
	</g>
	<path fill="#E5E5E4" d="M33.684,188.15c11.819,24.103,40.699,30.063,65.001,32.365c95.721,9.067,195.879-6.019,278.021-63.871
		c2.894-2.038,5.864-4.172,9.211-4.762c9.33-1.646,16.65,8.719,21.827,17.892c15.757,27.904,31.511,55.808,47.265,83.712
		c6.579,11.655,13.167,23.328,20.383,34.473c2.573,3.976,7.075,9.241,9.65,13.105c8.907,13.362,5.601,26.587-6.995,33.164
		c-6.92,3.614-14.883,9.031-21.897,12.3c-115.241,53.717-255.902,19.962-357.004-57.976c-30.233-23.306-56.351-55.47-64.717-93.658
		C33.943,192.682,33.575,190.423,33.684,188.15z"/>
</g>
<path fill="#E5E5E4" d="M561.752,299.342c-12.743,38.397-47.412,66.56-87.762,70.643c-1.188,0.121-1.028,1.847,0.146,1.83
	c41.641-0.642,80.583-31.016,91.45-71.209C566.186,298.39,562.477,297.154,561.752,299.342z"/>
<path fill="#E5E5E4" d="M582.951,311.709c-6.012,28.441-25.311,53.294-51.38,66.165c-1.092,0.54-0.492,2.331,0.66,1.815
	c27.802-12.449,48.093-37.488,54.579-67.245C587.352,309.965,583.477,309.235,582.951,311.709z"/>
<g>
</g>
<g>
</g>
<g>
</g>
<g>
</g>
<g>
</g>
<g>
</g>
</svg>
